<svg id="Layer_1" data-name="Layer 1" xmlns="http://www.w3.org/2000/svg" viewBox="0 0 359.22 221.96">
  <defs>
    <style>
      .cls-1 {
        fill: #3d4752;
      }

      .cls-2 {
        fill: #f7bcae;
      }

      .cls-3, .cls-4 {
        fill: none;
        stroke-miterlimit: 10;
        stroke-width: 0.9px;
      }

      .cls-3 {
        stroke: #000;
        opacity: 0;
      }

      .cls-4 {
        stroke: #3d4752;
      }

      .cls-5 {
        fill: #fff;
      }

      .cls-6 {
        fill: #d6d6d6;
      }
    </style>
  </defs>
  <title>how-to-7</title>
  <polygon class="cls-1" points="312.17 9.14 310.95 9.73 311.49 10 311.13 10.13 310.77 9.32 312.03 8.83 312.17 9.14"/>
  <g>
    <rect class="cls-2" x="0.45" y="108.73" width="18" height="18"/>
    <rect class="cls-3" x="0.45" y="108.73" width="18" height="18"/>
    <line class="cls-4" x1="18.45" y1="117.73" x2="166.95" y2="176.23"/>
    <polygon class="cls-1" points="18.63 117.32 18.45 117.73 18.45 117.23 18.63 117.32"/>
    <polygon class="cls-1" points="166.95 176.72 166.77 176.63 166.95 176.23 166.95 176.72"/>
    <rect class="cls-5" x="68.72" y="141.4" width="75.96" height="22.14"/>
    <path class="cls-1" d="M69.37,149.5c0-1.28,0-2.61,0-3.84h.72c0,.16,0,.48,0,.65h0a1.3,1.3,0,0,1,1.47-.72l0,.7a1.1,1.1,0,0,0-1.43,1.19v2h-.76"/>
    <path class="cls-1" d="M73.89,145.55c1.3,0,1.9.87,1.84,2.25h-3A1.2,1.2,0,0,0,73.93,149a1.28,1.28,0,0,0,1.12-.58l.53.43a1.92,1.92,0,0,1-1.65.79,2,2,0,0,1,0-4M75,147.24a1.07,1.07,0,0,0-1.54-1,1.12,1.12,0,0,0-.75,1Z"/>
    <path class="cls-1" d="M78.61,149.5h-.83l-1.56-3.84h.84c.38,1,.74,2,1.14,3l1.13-3h.81"/>
    <path class="cls-1" d="M82.16,149a1.09,1.09,0,0,0,1.11-1.33c-.83,0-1.9,0-1.9.73,0,.44.35.59.79.6m-1.56-.58c0-1.24,1.4-1.26,2.67-1.3,0-.65-.35-.95-.95-.95a1.6,1.6,0,0,0-1.09.45l-.4-.49a2.26,2.26,0,0,1,1.57-.58,1.42,1.42,0,0,1,1.6,1.51,23.92,23.92,0,0,0,.06,2.44h-.69a2.56,2.56,0,0,1-.06-.55h0a1.47,1.47,0,0,1-1.29.65C81.2,149.6,80.6,149.23,80.6,148.41Z"/>
    <path class="cls-1" d="M86,146.29a1.34,1.34,0,0,1,1.22-.74,1.2,1.2,0,0,1,1.19.77,1.41,1.41,0,0,1,1.3-.77c1,0,1.43.61,1.43,1.56v2.38h-.76v-2.13c0-.66-.19-1.17-.85-1.17-1.39,0-.87,2-1,3.3h-.76v-2.28c0-.61-.21-1-.81-1s-1,.58-1,1.26v2h-.76c0-1.28,0-2.61,0-3.84H86c0,.16,0,.45,0,.63h0"/>
    <path class="cls-1" d="M94.46,149a1.39,1.39,0,0,0,0-2.78,1.39,1.39,0,0,0,0,2.78m.13.64a1.59,1.59,0,0,1-1.35-.68h0v2.52h-.76v-5.78h.75v.6h0a1.54,1.54,0,0,1,1.39-.7,2,2,0,0,1,0,4Z"/>
    <path class="cls-1" d="M101.34,145.55c1.3,0,1.9.87,1.84,2.25h-3a1.2,1.2,0,0,0,1.25,1.17,1.28,1.28,0,0,0,1.12-.58l.53.43a1.92,1.92,0,0,1-1.65.79,2,2,0,0,1,0-4m1.08,1.68a1.07,1.07,0,0,0-1.54-1,1.12,1.12,0,0,0-.75,1Z"/>
    <polyline class="cls-1" points="105.11 147.48 103.71 145.66 104.65 145.66 105.59 146.98 106.54 145.66 107.43 145.66 106.04 147.47 107.59 149.5 106.64 149.5 105.57 148 104.49 149.5 103.57 149.5"/>
    <path class="cls-1" d="M108.7,143.78a.5.5,0,0,1,.51.49.51.51,0,1,1-.51-.49m.38,5.72h-.76v-3.84h.76v3.84Z"/>
    <path class="cls-1" d="M110.27,147.18c-.5-1.26.95-2,2.14-1.47a1.3,1.3,0,0,1,.6.47l-.53.45a1,1,0,0,0-.89-.48c-.38,0-.71.12-.71.5,0,.59.92.51,1.39.73a1.08,1.08,0,0,1,.78,1c.06,1.56-2.45,1.51-3.08.55l.54-.46a1.24,1.24,0,0,0,1,.53c.42,0,.76-.14.76-.56,0-.73-1.27-.51-1.76-.95a.84.84,0,0,1-.26-.3"/>
    <path class="cls-1" d="M115.23,149.56c-.75,0-1.13-.43-1.12-1.2v-2.08h-.74v-.62h.74v-1.1h.75v1.1h1v.62h-1v2c0,.44.13.64.54.65a1.09,1.09,0,0,0,.45-.1l0,.62a1.94,1.94,0,0,1-.65.11"/>
    <path class="cls-1" d="M117.06,143.78a.5.5,0,0,1,.51.49.51.51,0,1,1-.51-.49m.38,5.72h-.76v-3.84h.76v3.84Z"/>
    <path class="cls-1" d="M118.77,149.5c0-1.28,0-2.61,0-3.84h.72c0,.16,0,.45,0,.63h0a1.34,1.34,0,0,1,1.25-.74c1,0,1.43.61,1.43,1.56v2.38h-.76v-2.13c0-.68-.19-1.17-.87-1.17s-1,.57-1,1.26v2h-.76"/>
    <path class="cls-1" d="M125.29,146.19a1.36,1.36,0,0,0,0,2.71,1.35,1.35,0,0,0,0-2.71m2,3.12a1.92,1.92,0,0,1-2.12,2.14,2.81,2.81,0,0,1-1.88-.7l.49-.59a2,2,0,0,0,1.4.62c1.1,0,1.47-.77,1.34-1.91a1.56,1.56,0,0,1-1.35.66,2,2,0,0,1,0-4,1.63,1.63,0,0,1,1.4.72v-.62h.74v3.64Z"/>
    <path class="cls-1" d="M131.9,149a1.09,1.09,0,0,0,1.11-1.33c-.83,0-1.9,0-1.9.73,0,.44.35.59.79.6m-1.56-.58c0-1.24,1.4-1.26,2.67-1.3,0-.65-.35-.95-.95-.95a1.6,1.6,0,0,0-1.09.45l-.4-.49a2.26,2.26,0,0,1,1.57-.58,1.42,1.42,0,0,1,1.6,1.51,23.92,23.92,0,0,0,.06,2.44h-.69a2.56,2.56,0,0,1-.06-.55h0a1.47,1.47,0,0,1-1.29.65C130.93,149.6,130.33,149.23,130.33,148.41Z"/>
    <path class="cls-1" d="M137,149a1.39,1.39,0,0,0,0-2.78,1.39,1.39,0,0,0,0,2.78m.13.64a1.59,1.59,0,0,1-1.35-.68h0v2.52H135v-5.78h.75v.6h0a1.54,1.54,0,0,1,1.39-.7,2,2,0,0,1,0,4Z"/>
    <path class="cls-1" d="M142.15,149a1.39,1.39,0,0,0,0-2.78,1.39,1.39,0,0,0,0,2.78m.13.64a1.59,1.59,0,0,1-1.35-.68h0v2.52h-.76v-5.78h.75v.6h0a1.54,1.54,0,0,1,1.39-.7,2,2,0,0,1,0,4Z"/>
    <polyline class="cls-1" points="70.95 158.87 69.07 158.87 69.07 158.55 69.07 158.22 70.95 158.22 70.95 158.55 70.95 158.87"/>
    <path class="cls-1" d="M73.45,155.33a.87.87,0,0,0-.86.89c0,.58.41.76.86.92v-1.81m.41,4.63a.9.9,0,0,0,.91-1c0-.58-.45-.8-.91-1V160Zm1.68-1a1.57,1.57,0,0,1-1.68,1.63v.58h-.41v-.58a2.5,2.5,0,0,1-1.81-.8l.59-.5a1.62,1.62,0,0,0,1.22.66v-2.06c-.83-.25-1.63-.58-1.63-1.64s.69-1.47,1.63-1.57v-.57h.41v.56a2.36,2.36,0,0,1,1.6.62l-.55.51a1.4,1.4,0,0,0-1-.49v1.93C74.69,157.55,75.54,157.88,75.54,159Z"/>
    <path class="cls-1" d="M79.54,158.91c0-.87-.77-1.09-1.68-1.06v-.65c.85,0,1.53-.15,1.53-1a.92.92,0,0,0-1-.95,1,1,0,0,0-1,.7l-.71-.25a1.81,1.81,0,0,1,1.75-1.11c1,0,1.77.51,1.77,1.56a1.34,1.34,0,0,1-1,1.32,1.36,1.36,0,0,1,1.17,1.4,1.7,1.7,0,0,1-1.92,1.75,1.89,1.89,0,0,1-2-1.26l.73-.24a1.21,1.21,0,0,0,1.21.84,1,1,0,0,0,1.15-1.09"/>
    <path class="cls-1" d="M83.93,155.53a.85.85,0,0,0-1.15,0c-.68.71-.72,2.57-.36,3.66a1,1,0,0,0,.94.81c1.22,0,1.21-1.83,1.1-3.13a2.3,2.3,0,0,0-.53-1.34m-2.41,3.3c-.32-1.88,0-4.2,1.85-4.2,1.53,0,2,1.43,2,3a3.17,3.17,0,0,1-1.08,2.78,1.79,1.79,0,0,1-1.76,0A2.3,2.3,0,0,1,81.51,158.84Z"/>
    <polyline class="cls-1" points="87.2 158.35 87.22 158.35 88.83 156.68 89.86 156.68 88.06 158.43 90.01 160.52 88.96 160.52 87.22 158.53 87.2 158.53 87.2 159.53 87.2 160.52 86.44 160.52 86.44 157.46 86.44 154.4 87.2 154.4 87.2 156.38 87.2 158.35"/>
    <line class="cls-4" x1="18.45" y1="117.73" x2="166.95" y2="59.23"/>
    <polygon class="cls-1" points="18.63 118.13 18.45 118.22 18.45 117.73 18.63 118.13"/>
    <polygon class="cls-1" points="166.95 59.23 166.77 58.82 167 58.73 166.95 59.23"/>
    <rect class="cls-5" x="71.37" y="77.41" width="42.61" height="22.1"/>
    <path class="cls-1" d="M74.05,85a1.39,1.39,0,0,0,0-2.78,1.39,1.39,0,0,0,0,2.78m.13.64a1.62,1.62,0,0,1-1.39-.71h0v.61H72V79.38h.76v2.86h0a1.6,1.6,0,0,1,1.37-.68,2,2,0,0,1,0,4Z"/>
    <path class="cls-1" d="M80.57,81.67c0,1.28,0,2.61,0,3.84h-.72c0-.16,0-.49,0-.63a1.41,1.41,0,0,1-1.26.74,1.36,1.36,0,0,1-1.43-1.56V81.67h.76v2.12c0,.68.19,1.18.87,1.18s1-.57,1-1.26v-2h.76"/>
    <path class="cls-1" d="M82.28,79.79a.5.5,0,0,1,.51.49.51.51,0,1,1-.51-.49m.38,5.72H81.9V81.67h.76v3.84Z"/>
    <polyline class="cls-1" points="84.77 85.51 84.01 85.51 84.01 82.45 84.01 79.38 84.77 79.38 84.77 82.45 84.77 85.51"/>
    <path class="cls-1" d="M87.9,82.2a1.39,1.39,0,0,0,0,2.78,1.39,1.39,0,0,0,0-2.78m-.14-.63a1.7,1.7,0,0,1,1.39.68V79.38h.76v6.12h-.74a3.73,3.73,0,0,0,0-.61,1.6,1.6,0,0,1-1.39.71,1.84,1.84,0,0,1-1.94-2A1.86,1.86,0,0,1,87.76,81.56Z"/>
    <path class="cls-1" d="M95,82.2a1.36,1.36,0,0,0,0,2.71,1.35,1.35,0,0,0,0-2.71m2,3.12a1.92,1.92,0,0,1-2.12,2.14,2.81,2.81,0,0,1-1.88-.7l.49-.59a2,2,0,0,0,1.4.62c1.1,0,1.47-.77,1.34-1.91a1.56,1.56,0,0,1-1.35.66,2,2,0,0,1,0-4,1.63,1.63,0,0,1,1.4.72v-.62H97v3.64Z"/>
    <path class="cls-1" d="M99.62,85a1.09,1.09,0,0,0,1.11-1.33c-.83,0-1.9,0-1.9.73,0,.44.35.59.79.6m-1.56-.58c0-1.24,1.4-1.26,2.67-1.3,0-.65-.35-.95-.95-.95a1.6,1.6,0,0,0-1.09.45l-.4-.49a2.26,2.26,0,0,1,1.57-.58,1.42,1.42,0,0,1,1.6,1.51,23.92,23.92,0,0,0,.06,2.44h-.69a2.56,2.56,0,0,1-.06-.55h0a1.47,1.47,0,0,1-1.29.65C98.66,85.61,98.06,85.24,98.06,84.42Z"/>
    <path class="cls-1" d="M103.48,82.3a1.34,1.34,0,0,1,1.22-.74,1.2,1.2,0,0,1,1.19.77,1.41,1.41,0,0,1,1.3-.77c1,0,1.43.61,1.43,1.56v2.38h-.76V83.38c0-.66-.19-1.17-.85-1.17-1.39,0-.87,2-1,3.3h-.76V83.22c0-.61-.21-1-.81-1s-1,.58-1,1.26v2h-.76c0-1.28,0-2.61,0-3.84h.72c0,.16,0,.45,0,.63h0"/>
    <path class="cls-1" d="M111.65,81.56c1.3,0,1.9.87,1.84,2.25h-3A1.2,1.2,0,0,0,111.69,85a1.28,1.28,0,0,0,1.12-.58l.53.43a1.92,1.92,0,0,1-1.65.79,2,2,0,0,1,0-4m1.08,1.68a1.07,1.07,0,0,0-1.54-1,1.12,1.12,0,0,0-.75,1Z"/>
    <polyline class="cls-1" points="73.61 94.88 71.73 94.88 71.73 94.56 71.73 94.23 73.61 94.23 73.61 94.56 73.61 94.88"/>
    <path class="cls-1" d="M76.1,91.34a.87.87,0,0,0-.86.89c0,.58.41.76.86.92V91.34M76.51,96a.9.9,0,0,0,.91-1c0-.58-.45-.8-.91-1V96Zm1.68-1a1.57,1.57,0,0,1-1.68,1.63v.58H76.1v-.58a2.5,2.5,0,0,1-1.81-.8l.59-.5A1.62,1.62,0,0,0,76.1,96V93.92c-.83-.25-1.63-.58-1.63-1.64s.69-1.47,1.63-1.57v-.57h.41v.56a2.36,2.36,0,0,1,1.6.62l-.55.51a1.4,1.4,0,0,0-1-.49v1.93C77.35,93.56,78.2,93.89,78.2,95Z"/>
    <polyline class="cls-1" points="82.95 91.51 80.65 96.53 79.75 96.53 82.14 91.5 79.3 91.5 79.3 91.15 79.3 90.8 82.95 90.8 82.95 91.16 82.95 91.51"/>
    <path class="cls-1" d="M85.67,93.53a2.89,2.89,0,0,0-1.27.32l.08-3h3.09v.7H85.2l0,1.51c1.4-.36,2.69.3,2.66,1.7a2,2,0,0,1-3.83.83l.71-.28a1.18,1.18,0,0,0,1.12.77A1.13,1.13,0,0,0,87,94.78c0-.83-.53-1.24-1.34-1.26"/>
    <polyline class="cls-1" points="89.85 94.36 89.88 94.36 91.49 92.69 92.51 92.69 90.71 94.44 92.67 96.53 91.61 96.53 89.88 94.54 89.85 94.54 89.85 95.54 89.85 96.53 89.09 96.53 89.09 93.47 89.09 90.41 89.85 90.41 89.85 92.39 89.85 94.36"/>
    <line class="cls-4" x1="18.45" y1="117.73" x2="166.95" y2="117.73"/>
    <polygon class="cls-1" points="166.95 117.73 166.95 118.18 166.95 117.28 167 117.28 166.95 117.73"/>
    <rect class="cls-5" x="66.15" y="106.66" width="82.31" height="22.09"/>
    <path class="cls-1" d="M68.83,114.22a1.39,1.39,0,0,0,0-2.78,1.39,1.39,0,0,0,0,2.78m.13.64a1.62,1.62,0,0,1-1.39-.71h0v.61h-.74v-6.12h.76v2.86h0a1.6,1.6,0,0,1,1.37-.68,2,2,0,0,1,0,4Z"/>
    <path class="cls-1" d="M75.35,110.92c0,1.28,0,2.61,0,3.84h-.72c0-.16,0-.49,0-.63a1.41,1.41,0,0,1-1.26.74,1.36,1.36,0,0,1-1.43-1.56v-2.38h.76V113c0,.68.19,1.18.87,1.18s1-.57,1-1.26v-2h.76"/>
    <path class="cls-1" d="M77.06,109a.5.5,0,0,1,.51.49.51.51,0,1,1-.51-.49m.38,5.72h-.76v-3.84h.76v3.84Z"/>
    <polyline class="cls-1" points="79.55 114.76 78.79 114.76 78.79 111.7 78.79 108.63 79.55 108.63 79.55 111.7 79.55 114.76"/>
    <path class="cls-1" d="M82.68,111.45a1.39,1.39,0,0,0,0,2.78,1.39,1.39,0,0,0,0-2.78m-.14-.63a1.7,1.7,0,0,1,1.39.68v-2.86h.76v6.12H84a3.73,3.73,0,0,0,0-.61,1.6,1.6,0,0,1-1.39.71,1.84,1.84,0,0,1-1.94-2A1.86,1.86,0,0,1,82.54,110.81Z"/>
    <path class="cls-1" d="M90,114.22a1.39,1.39,0,0,0,0-2.78,1.39,1.39,0,0,0,0,2.78m.13.64a1.59,1.59,0,0,1-1.35-.68h0v2.52H88v-5.78h.75v.6h0a1.54,1.54,0,0,1,1.39-.7,2,2,0,0,1,0,4Z"/>
    <path class="cls-1" d="M93.14,114.76c0-1.28,0-2.61,0-3.84h.72c0,.16,0,.48,0,.65h0a1.3,1.3,0,0,1,1.47-.72l0,.7a1.1,1.1,0,0,0-1.43,1.19v2h-.76"/>
    <path class="cls-1" d="M97.74,114.22a1.39,1.39,0,1,0-1.28-1.39,1.24,1.24,0,0,0,1.28,1.39m0-3.41a2,2,0,1,1-2.07,2A1.9,1.9,0,0,1,97.74,110.81Z"/>
    <path class="cls-1" d="M102.67,111.45a1.39,1.39,0,0,0,0,2.78,1.39,1.39,0,0,0,0-2.78m-.14-.63a1.7,1.7,0,0,1,1.39.68v-2.86h.76v6.12h-.74a3.73,3.73,0,0,0,0-.61,1.6,1.6,0,0,1-1.39.71,1.84,1.84,0,0,1-1.94-2A1.86,1.86,0,0,1,102.53,110.81Z"/>
    <path class="cls-1" d="M109.4,110.92c0,1.28,0,2.61,0,3.84h-.72c0-.16,0-.49,0-.63a1.41,1.41,0,0,1-1.26.74A1.36,1.36,0,0,1,106,113.3v-2.38h.76V113c0,.68.19,1.18.87,1.18s1-.57,1-1.26v-2h.76"/>
    <path class="cls-1" d="M110.47,112.84a1.88,1.88,0,0,1,2-2,1.82,1.82,0,0,1,1.44.63l-.55.45a1.05,1.05,0,0,0-.88-.44,1.39,1.39,0,0,0,0,2.77,1.1,1.1,0,0,0,.92-.42l.51.46a1.77,1.77,0,0,1-1.43.6,1.9,1.9,0,0,1-2.07-2"/>
    <path class="cls-1" d="M115.95,114.82c-.75,0-1.13-.43-1.12-1.2v-2.08h-.74v-.62h.74v-1.1h.75v1.1h1v.62h-1v2c0,.44.13.64.54.65a1.09,1.09,0,0,0,.45-.1l0,.62a1.94,1.94,0,0,1-.65.11"/>
    <path class="cls-1" d="M117.78,109a.5.5,0,0,1,.51.49.51.51,0,1,1-.51-.49m.38,5.72h-.76v-3.84h.76v3.84Z"/>
    <path class="cls-1" d="M121.29,114.76h-.83l-1.56-3.84h.84c.38,1,.74,2,1.14,3l1.13-3h.81"/>
    <path class="cls-1" d="M124,109a.5.5,0,0,1,.51.49A.51.51,0,1,1,124,109m.38,5.72h-.76v-3.84h.76v3.84Z"/>
    <path class="cls-1" d="M126.89,114.82c-.75,0-1.13-.43-1.12-1.2v-2.08H125v-.62h.74v-1.1h.75v1.1h1v.62h-1v2c0,.44.13.64.54.65a1.09,1.09,0,0,0,.45-.1l0,.62a1.94,1.94,0,0,1-.65.11"/>
    <path class="cls-1" d="M128.6,110.92c.41,1,.78,2,1.21,3l1.06-3h.81l-1.86,4.75a1.4,1.4,0,0,1-1.83,1l.07-.67a.79.79,0,0,0,.83-.1,4.73,4.73,0,0,0,.51-1.12l-1.64-3.84h.85"/>
    <path class="cls-1" d="M135.72,114.26a1.09,1.09,0,0,0,1.11-1.33c-.83,0-1.9,0-1.9.73,0,.44.35.59.79.6m-1.56-.58c0-1.24,1.4-1.26,2.67-1.3,0-.65-.35-.95-.95-.95a1.6,1.6,0,0,0-1.09.45l-.4-.49a2.26,2.26,0,0,1,1.57-.58,1.42,1.42,0,0,1,1.6,1.51,23.92,23.92,0,0,0,.06,2.44h-.69a2.56,2.56,0,0,1-.06-.55h0a1.47,1.47,0,0,1-1.29.65C134.76,114.86,134.16,114.49,134.16,113.67Z"/>
    <path class="cls-1" d="M140.84,114.22a1.39,1.39,0,0,0,0-2.78,1.39,1.39,0,0,0,0,2.78m.13.64a1.59,1.59,0,0,1-1.35-.68h0v2.52h-.76v-5.78h.75v.6h0a1.54,1.54,0,0,1,1.39-.7,2,2,0,0,1,0,4Z"/>
    <path class="cls-1" d="M146,114.22a1.39,1.39,0,0,0,0-2.78,1.39,1.39,0,0,0,0,2.78m.13.64a1.59,1.59,0,0,1-1.35-.68h0v2.52H144v-5.78h.75v.6h0a1.54,1.54,0,0,1,1.39-.7,2,2,0,0,1,0,4Z"/>
    <polyline class="cls-1" points="68.39 124.13 66.51 124.13 66.51 123.81 66.51 123.48 68.39 123.48 68.39 123.81 68.39 124.13"/>
    <path class="cls-1" d="M70.88,120.59a.87.87,0,0,0-.86.89c0,.58.41.76.86.92v-1.81m.41,4.63a.9.9,0,0,0,.91-1c0-.58-.45-.8-.91-1v1.94Zm1.68-1a1.57,1.57,0,0,1-1.68,1.63v.58h-.41v-.58a2.5,2.5,0,0,1-1.81-.8l.59-.5a1.62,1.62,0,0,0,1.22.66v-2.06c-.83-.25-1.63-.58-1.63-1.64s.69-1.47,1.63-1.57v-.57h.41V120a2.36,2.36,0,0,1,1.6.62l-.55.51a1.4,1.4,0,0,0-1-.49v1.93C72.13,122.81,73,123.14,73,124.24Z"/>
    <path class="cls-1" d="M75.63,122.78a2.89,2.89,0,0,0-1.27.32l.08-3h3.09v.7H75.17l0,1.51c1.4-.36,2.69.3,2.66,1.7a2,2,0,0,1-3.83.83l.71-.28a1.18,1.18,0,0,0,1.12.77A1.13,1.13,0,0,0,77,124c0-.83-.53-1.24-1.34-1.26"/>
    <path class="cls-1" d="M81.36,120.79a.85.85,0,0,0-1.15,0c-.68.71-.72,2.57-.36,3.66a1,1,0,0,0,.94.81c1.22,0,1.21-1.83,1.1-3.13a2.3,2.3,0,0,0-.53-1.34m-2.41,3.3c-.32-1.88,0-4.2,1.85-4.2,1.53,0,2,1.43,2,3a3.17,3.17,0,0,1-1.08,2.78,1.79,1.79,0,0,1-1.76,0A2.3,2.3,0,0,1,78.95,124.1Z"/>
    <polyline class="cls-1" points="84.63 123.61 84.66 123.61 86.27 121.94 87.29 121.94 85.49 123.69 87.44 125.78 86.39 125.78 84.66 123.79 84.63 123.79 84.63 124.79 84.63 125.78 83.87 125.78 83.87 122.72 83.87 119.66 84.63 119.66 84.63 121.64 84.63 123.61"/>
    <path class="cls-6" d="M184.95,176.23a9,9,0,1,1-9-9A9,9,0,0,1,184.95,176.23Z"/>
    <path class="cls-3" d="M184.95,176.23a9,9,0,1,1-9-9A9,9,0,0,1,184.95,176.23Z"/>
    <path class="cls-6" d="M184.95,117.73a9,9,0,1,1-9-9A9,9,0,0,1,184.95,117.73Z"/>
    <path class="cls-3" d="M184.95,117.73a9,9,0,1,1-9-9A9,9,0,0,1,184.95,117.73Z"/>
    <path class="cls-6" d="M184.95,59.23a9,9,0,1,1-9-9A9,9,0,0,1,184.95,59.23Z"/>
    <path class="cls-3" d="M184.95,59.23a9,9,0,1,1-9-9A9,9,0,0,1,184.95,59.23Z"/>
    <line class="cls-4" x1="184.95" y1="59.23" x2="310.95" y2="9.73"/>
    <polygon class="cls-1" points="185.13 59.63 184.91 59.72 184.95 59.23 185.13 59.63"/>
    <rect class="cls-5" x="239.08" y="16.79" width="51.3" height="22.14"/>
    <polyline class="cls-1" points="240.52 24.89 239.76 24.89 239.76 21.83 239.76 18.77 240.52 18.77 240.52 21.83 240.52 24.89"/>
    <path class="cls-1" d="M243.13,24.39a1.09,1.09,0,0,0,1.11-1.33c-.83,0-1.9,0-1.9.73,0,.44.35.59.79.6m-1.56-.58c0-1.24,1.4-1.26,2.67-1.3,0-.65-.35-.95-.95-.95a1.6,1.6,0,0,0-1.09.45l-.4-.49a2.26,2.26,0,0,1,1.57-.58,1.42,1.42,0,0,1,1.6,1.51,23.92,23.92,0,0,0,.06,2.44h-.69a2.56,2.56,0,0,1-.06-.55h0A1.47,1.47,0,0,1,243,25C242.16,25,241.56,24.63,241.56,23.81Z"/>
    <path class="cls-1" d="M246.24,24.89c0-1.28,0-2.61,0-3.84h.72c0,.16,0,.48,0,.65h0a1.3,1.3,0,0,1,1.47-.72l0,.7A1.1,1.1,0,0,0,247,22.88v2h-.76"/>
    <path class="cls-1" d="M250.83,21.58a1.21,1.21,0,0,0-1.27,1.35,1.29,1.29,0,1,0,2.58,0,1.24,1.24,0,0,0-1.3-1.35m2,3.12a1.92,1.92,0,0,1-2.12,2.14,2.81,2.81,0,0,1-1.88-.7l.49-.59a2,2,0,0,0,1.4.62c1.1,0,1.47-.77,1.34-1.91a1.56,1.56,0,0,1-1.35.66,1.81,1.81,0,0,1-1.94-2,1.82,1.82,0,0,1,1.93-2,1.63,1.63,0,0,1,1.4.72v-.62h.74V24.7Z"/>
    <path class="cls-1" d="M255.88,20.95c1.3,0,1.9.87,1.84,2.25h-3a1.2,1.2,0,0,0,1.25,1.17,1.28,1.28,0,0,0,1.12-.58l.53.43a1.92,1.92,0,0,1-1.65.79,1.86,1.86,0,0,1-2-2,1.86,1.86,0,0,1,2-2M257,22.63a1.07,1.07,0,0,0-1.54-1,1.12,1.12,0,0,0-.75,1Z"/>
    <path class="cls-1" d="M260.8,24.89c0-1.28,0-2.61,0-3.84h.72c0,.16,0,.48,0,.65h0A1.3,1.3,0,0,1,263,21l0,.7a1.1,1.1,0,0,0-1.43,1.19v2h-.76"/>
    <path class="cls-1" d="M265.32,20.95c1.3,0,1.9.87,1.84,2.25h-3a1.2,1.2,0,0,0,1.25,1.17,1.28,1.28,0,0,0,1.12-.58l.53.43a1.92,1.92,0,0,1-1.65.79,1.86,1.86,0,0,1-2-2,1.86,1.86,0,0,1,2-2m1.08,1.68a1.07,1.07,0,0,0-1.54-1,1.12,1.12,0,0,0-.75,1Z"/>
    <path class="cls-1" d="M270,24.89h-.83l-1.56-3.84h.84c.38,1,.74,2,1.14,3l1.13-3h.81"/>
    <path class="cls-1" d="M274,20.95c1.3,0,1.9.87,1.84,2.25h-3a1.2,1.2,0,0,0,1.25,1.17,1.28,1.28,0,0,0,1.12-.58l.53.43a1.92,1.92,0,0,1-1.65.79,1.86,1.86,0,0,1-2-2,1.86,1.86,0,0,1,2-2m1.08,1.68a1.07,1.07,0,0,0-1.54-1,1.12,1.12,0,0,0-.75,1Z"/>
    <path class="cls-1" d="M277,24.89c0-1.28,0-2.61,0-3.84h.72c0,.16,0,.45,0,.63h0a1.34,1.34,0,0,1,1.25-.74c1,0,1.43.61,1.43,1.56v2.38h-.76V22.76c0-.68-.19-1.17-.87-1.17s-1,.57-1,1.26v2H277"/>
    <path class="cls-1" d="M285.06,21.05c0,1.28,0,2.61,0,3.84h-.72c0-.16,0-.49,0-.63a1.41,1.41,0,0,1-1.26.74,1.36,1.36,0,0,1-1.43-1.56V21.05h.76v2.12c0,.68.19,1.18.87,1.18s1-.57,1-1.26v-2h.76"/>
    <path class="cls-1" d="M288.11,20.95c1.3,0,1.9.87,1.84,2.25h-3a1.2,1.2,0,0,0,1.25,1.17,1.28,1.28,0,0,0,1.12-.58l.53.43a1.92,1.92,0,0,1-1.65.79,1.86,1.86,0,0,1-2-2,1.86,1.86,0,0,1,2-2m1.08,1.68a1.07,1.07,0,0,0-1.54-1,1.12,1.12,0,0,0-.75,1Z"/>
    <path class="cls-1" d="M242.5,34.31c0-.87-.77-1.09-1.68-1.06V32.6c.85,0,1.53-.15,1.53-1a.92.92,0,0,0-1-.95,1,1,0,0,0-1,.7l-.71-.25A1.81,1.81,0,0,1,241.36,30c1,0,1.77.51,1.77,1.56a1.34,1.34,0,0,1-1,1.32,1.36,1.36,0,0,1,1.17,1.4,1.7,1.7,0,0,1-1.92,1.75,1.89,1.89,0,0,1-2-1.26l.73-.24a1.21,1.21,0,0,0,1.21.84,1,1,0,0,0,1.15-1.09"/>
    <path class="cls-1" d="M246.32,33.23a1.09,1.09,0,1,0,1.12,1.09,1,1,0,0,0-1.12-1.09m0-2.54a.94.94,0,1,0,0,1.87.94.94,0,1,0,0-1.87Zm1.72.9a1.36,1.36,0,0,1-.88,1.31,1.43,1.43,0,0,1,1.09,1.46c0,1.13-.79,1.71-1.92,1.71s-1.93-.58-1.93-1.71a1.44,1.44,0,0,1,1.09-1.46h0a1.29,1.29,0,0,1-.88-1.28,1.73,1.73,0,0,1,3.44,0Z"/>
    <path class="cls-1" d="M250.77,36.18l-.55-.27,3.52-6,.54.27m-3.79,2.09a.76.76,0,1,0-.76-.76A.71.71,0,0,0,250.49,32.28Zm0,.67a1.43,1.43,0,1,1,1.43-1.43A1.35,1.35,0,0,1,250.49,33ZM254,35.34a.76.76,0,1,0-.76-.76A.71.71,0,0,0,254,35.34Zm0,.67a1.43,1.43,0,1,1,1.43-1.43A1.35,1.35,0,0,1,254,36Z"/>
    <line class="cls-4" x1="184.95" y1="59.23" x2="310.95" y2="50.23"/>
    <polygon class="cls-1" points="185 59.68 184.91 59.68 184.95 59.23 185 59.68"/>
    <polygon class="cls-1" points="310.95 50.23 311.76 50.63 311 50.68 310.9 49.78 311.99 49.69 310.95 50.23"/>
    <rect class="cls-5" x="239.17" y="42.44" width="51.61" height="22.09"/>
    <path class="cls-1" d="M239.69,48.23c-.5-1.26.95-2,2.14-1.47a1.3,1.3,0,0,1,.6.47l-.53.45a1,1,0,0,0-.89-.48c-.38,0-.71.12-.71.5,0,.59.92.51,1.39.73a1.08,1.08,0,0,1,.78,1c.06,1.56-2.45,1.51-3.08.55l.54-.46a1.24,1.24,0,0,0,1,.53c.42,0,.76-.14.76-.56,0-.73-1.27-.51-1.76-.95a.84.84,0,0,1-.26-.3"/>
    <path class="cls-1" d="M244.17,47.34a1.34,1.34,0,0,1,1.22-.74,1.2,1.2,0,0,1,1.19.77,1.41,1.41,0,0,1,1.3-.77c1,0,1.43.61,1.43,1.56v2.38h-.76V48.41c0-.66-.19-1.17-.85-1.17-1.39,0-.87,2-1,3.3H246V48.26c0-.61-.21-1-.81-1s-1,.58-1,1.26v2h-.76c0-1.28,0-2.61,0-3.84h.72c0,.16,0,.45,0,.63h0"/>
    <path class="cls-1" d="M251.89,50A1.09,1.09,0,0,0,253,48.71c-.83,0-1.9,0-1.9.73,0,.44.35.59.79.6m-1.56-.58c0-1.24,1.4-1.26,2.67-1.3,0-.65-.35-.95-.95-.95a1.6,1.6,0,0,0-1.09.45l-.4-.49a2.26,2.26,0,0,1,1.57-.58,1.42,1.42,0,0,1,1.6,1.51,23.92,23.92,0,0,0,.06,2.44h-.69A2.56,2.56,0,0,1,253,50h0a1.47,1.47,0,0,1-1.29.65C250.93,50.64,250.33,50.28,250.33,49.46Z"/>
    <polyline class="cls-1" points="255.78 50.54 255.02 50.54 255.02 47.48 255.02 44.42 255.78 44.42 255.78 47.48 255.78 50.54"/>
    <polyline class="cls-1" points="257.89 50.54 257.13 50.54 257.13 47.48 257.13 44.42 257.89 44.42 257.89 47.48 257.89 50.54"/>
    <path class="cls-1" d="M261.21,50.54c0-1.28,0-2.61,0-3.84h.72c0,.16,0,.48,0,.65h0a1.3,1.3,0,0,1,1.47-.72l0,.7A1.1,1.1,0,0,0,262,48.53v2h-.76"/>
    <path class="cls-1" d="M265.73,46.6c1.3,0,1.9.87,1.84,2.25h-3A1.2,1.2,0,0,0,265.77,50a1.28,1.28,0,0,0,1.12-.58l.53.43a1.92,1.92,0,0,1-1.65.79,2,2,0,0,1,0-4m1.08,1.68a1.07,1.07,0,0,0-1.54-1,1.12,1.12,0,0,0-.75,1Z"/>
    <path class="cls-1" d="M270.44,50.54h-.83l-1.56-3.84h.84c.38,1,.74,2,1.14,3l1.13-3H272"/>
    <path class="cls-1" d="M274.45,46.6c1.3,0,1.9.87,1.84,2.25h-3A1.2,1.2,0,0,0,274.49,50a1.28,1.28,0,0,0,1.12-.58l.53.43a1.92,1.92,0,0,1-1.65.79,2,2,0,0,1,0-4m1.08,1.68a1.07,1.07,0,0,0-1.54-1,1.12,1.12,0,0,0-.75,1Z"/>
    <path class="cls-1" d="M277.36,50.54c0-1.28,0-2.61,0-3.84H278c0,.16,0,.45,0,.63h0a1.34,1.34,0,0,1,1.25-.74c1,0,1.43.61,1.43,1.56v2.38H280V48.41c0-.68-.19-1.17-.87-1.17s-1,.57-1,1.26v2h-.76"/>
    <path class="cls-1" d="M285.47,46.7c0,1.28,0,2.61,0,3.84h-.72c0-.16,0-.49,0-.63a1.41,1.41,0,0,1-1.26.74A1.36,1.36,0,0,1,282,49.09V46.7h.76v2.12c0,.68.19,1.18.87,1.18s1-.57,1-1.26v-2h.76"/>
    <path class="cls-1" d="M288.52,46.6c1.3,0,1.9.87,1.84,2.25h-3A1.2,1.2,0,0,0,288.56,50a1.28,1.28,0,0,0,1.12-.58l.53.43a1.92,1.92,0,0,1-1.65.79,2,2,0,0,1,0-4m1.08,1.68a1.07,1.07,0,0,0-1.54-1,1.12,1.12,0,0,0-.75,1Z"/>
    <path class="cls-1" d="M241.59,58.63a1.11,1.11,0,0,0-1.2,1.21,1.19,1.19,0,1,0,2.37,0,1.09,1.09,0,0,0-1.17-1.2m0,3.09a1.8,1.8,0,0,1-2-1.89,2.73,2.73,0,0,1,.56-1.63l1.5-2.37h.93L241,58.14v0a1.45,1.45,0,0,1,.71-.15,1.7,1.7,0,0,1,1.79,1.8A1.8,1.8,0,0,1,241.58,61.71Z"/>
    <path class="cls-1" d="M246.38,55.69a1.63,1.63,0,0,1,1.74,2.14,2.64,2.64,0,0,1-.85,1.22l-1.86,1.81h2.81v.7h-3.74v-.75l2.28-2.27a1.75,1.75,0,0,0,.63-1.22.94.94,0,0,0-1-1,1.08,1.08,0,0,0-1.08,1l-.77-.13a1.76,1.76,0,0,1,1.85-1.52"/>
    <path class="cls-1" d="M250.86,61.83l-.55-.27,3.52-6,.54.27m-3.79,2.09a.76.76,0,1,0-.76-.76A.71.71,0,0,0,250.58,57.93Zm0,.67A1.43,1.43,0,1,1,252,57.17,1.35,1.35,0,0,1,250.58,58.6ZM254.1,61a.76.76,0,1,0-.76-.76A.71.71,0,0,0,254.1,61Zm0,.67a1.43,1.43,0,1,1,1.43-1.43A1.35,1.35,0,0,1,254.1,61.67Z"/>
    <line class="cls-4" x1="184.95" y1="117.73" x2="310.95" y2="90.73"/>
    <polygon class="cls-1" points="185.04 118.18 184.91 118.22 184.95 117.73 185.04 118.18"/>
    <polygon class="cls-1" points="312.21 90.1 310.95 90.73 311.58 91.04 311.04 91.18 310.86 90.28 312.17 90.01 312.21 90.1"/>
    <rect class="cls-5" x="239.08" y="89.56" width="51.3" height="22.1"/>
    <polyline class="cls-1" points="240.52 97.66 239.76 97.66 239.76 94.6 239.76 91.53 240.52 91.53 240.52 94.6 240.52 97.66"/>
    <path class="cls-1" d="M243.13,97.16a1.09,1.09,0,0,0,1.11-1.33c-.83,0-1.9,0-1.9.73,0,.44.35.59.79.6m-1.56-.58c0-1.24,1.4-1.26,2.67-1.3,0-.65-.35-.95-.95-.95a1.6,1.6,0,0,0-1.09.45l-.4-.49a2.26,2.26,0,0,1,1.57-.58,1.42,1.42,0,0,1,1.6,1.51,23.92,23.92,0,0,0,.06,2.44h-.69a2.56,2.56,0,0,1-.06-.55h0a1.47,1.47,0,0,1-1.29.65C242.16,97.76,241.56,97.39,241.56,96.57Z"/>
    <path class="cls-1" d="M246.24,97.66c0-1.28,0-2.61,0-3.84h.72c0,.16,0,.48,0,.65h0a1.3,1.3,0,0,1,1.47-.72l0,.7A1.1,1.1,0,0,0,247,95.64v2h-.76"/>
    <path class="cls-1" d="M250.83,94.35a1.36,1.36,0,0,0,0,2.71,1.35,1.35,0,0,0,0-2.71m2,3.12a1.92,1.92,0,0,1-2.12,2.14,2.81,2.81,0,0,1-1.88-.7l.49-.59a2,2,0,0,0,1.4.62c1.1,0,1.47-.77,1.34-1.91a1.56,1.56,0,0,1-1.35.66,2,2,0,0,1,0-4,1.63,1.63,0,0,1,1.4.72v-.62h.74v3.64Z"/>
    <path class="cls-1" d="M255.88,93.71c1.3,0,1.9.87,1.84,2.25h-3a1.2,1.2,0,0,0,1.25,1.17,1.28,1.28,0,0,0,1.12-.58l.53.43a1.92,1.92,0,0,1-1.65.79,2,2,0,0,1,0-4M257,95.4a1.07,1.07,0,0,0-1.54-1,1.12,1.12,0,0,0-.75,1Z"/>
    <path class="cls-1" d="M260.8,97.66c0-1.28,0-2.61,0-3.84h.72c0,.16,0,.48,0,.65h0a1.3,1.3,0,0,1,1.47-.72l0,.7a1.1,1.1,0,0,0-1.43,1.19v2h-.76"/>
    <path class="cls-1" d="M265.32,93.71c1.3,0,1.9.87,1.84,2.25h-3a1.2,1.2,0,0,0,1.25,1.17,1.28,1.28,0,0,0,1.12-.58L267,97a1.92,1.92,0,0,1-1.65.79,2,2,0,0,1,0-4m1.08,1.68a1.07,1.07,0,0,0-1.54-1,1.12,1.12,0,0,0-.75,1Z"/>
    <path class="cls-1" d="M270,97.66h-.83l-1.56-3.84h.84c.38,1,.74,2,1.14,3l1.13-3h.81"/>
    <path class="cls-1" d="M274,93.71c1.3,0,1.9.87,1.84,2.25h-3a1.2,1.2,0,0,0,1.25,1.17,1.28,1.28,0,0,0,1.12-.58l.53.43a1.92,1.92,0,0,1-1.65.79,2,2,0,0,1,0-4m1.08,1.68a1.07,1.07,0,0,0-1.54-1,1.12,1.12,0,0,0-.75,1Z"/>
    <path class="cls-1" d="M277,97.66c0-1.28,0-2.61,0-3.84h.72c0,.16,0,.45,0,.63h0a1.34,1.34,0,0,1,1.25-.74c1,0,1.43.61,1.43,1.56v2.38h-.76V95.53c0-.68-.19-1.17-.87-1.17s-1,.57-1,1.26v2H277"/>
    <path class="cls-1" d="M285.06,93.82c0,1.28,0,2.61,0,3.84h-.72c0-.16,0-.49,0-.63a1.41,1.41,0,0,1-1.26.74,1.36,1.36,0,0,1-1.43-1.56V93.82h.76v2.12c0,.68.19,1.18.87,1.18s1-.57,1-1.26v-2h.76"/>
    <path class="cls-1" d="M288.11,93.71c1.3,0,1.9.87,1.84,2.25h-3a1.2,1.2,0,0,0,1.25,1.17,1.28,1.28,0,0,0,1.12-.58l.53.43a1.92,1.92,0,0,1-1.65.79,2,2,0,0,1,0-4m1.08,1.68a1.07,1.07,0,0,0-1.54-1,1.12,1.12,0,0,0-.75,1Z"/>
    <path class="cls-1" d="M241.15,105.68a2.89,2.89,0,0,0-1.27.32l.08-3h3.09v.7h-2.37l0,1.51c1.4-.36,2.69.3,2.66,1.7a2,2,0,0,1-3.83.83l.71-.28a1.18,1.18,0,0,0,1.12.77,1.13,1.13,0,0,0,1.2-1.23c0-.83-.53-1.24-1.34-1.26"/>
    <path class="cls-1" d="M246.32,105.89a1.11,1.11,0,0,0,1.2-1.21,1.19,1.19,0,1,0-2.38,0,1.1,1.1,0,0,0,1.18,1.2m0-3.09a1.8,1.8,0,0,1,2,1.89,2.8,2.8,0,0,1-.55,1.63l-1.5,2.37h-.93c.5-.78,1.05-1.56,1.53-2.32a1.56,1.56,0,0,1-.72.15,1.67,1.67,0,0,1-1.79-1.8A1.8,1.8,0,0,1,246.33,102.8Z"/>
    <path class="cls-1" d="M250.77,108.94l-.55-.27,3.52-6,.54.27M250.49,105a.76.76,0,1,0-.76-.76A.71.71,0,0,0,250.49,105Zm0,.67a1.43,1.43,0,1,1,1.43-1.43A1.35,1.35,0,0,1,250.49,105.72Zm3.52,2.39a.76.76,0,1,0-.76-.76A.71.71,0,0,0,254,108.11Zm0,.67a1.43,1.43,0,1,1,1.43-1.43A1.35,1.35,0,0,1,254,108.78Z"/>
    <line class="cls-4" x1="184.95" y1="117.73" x2="310.95" y2="131.23"/>
    <polygon class="cls-1" points="185 117.28 184.91 118.18 184.95 117.73 184.95 117.28 185 117.28"/>
    <polygon class="cls-1" points="311.71 130.87 310.95 131.23 312.12 131.81 310.9 131.68 311 130.78 311.71 130.87"/>
    <rect class="cls-5" x="240.21" y="115.34" width="51.61" height="22.09"/>
    <path class="cls-1" d="M240.73,121.13c-.5-1.26.95-2,2.14-1.47a1.3,1.3,0,0,1,.6.47l-.53.45a1,1,0,0,0-.89-.48c-.38,0-.71.12-.71.5,0,.59.92.51,1.39.73a1.08,1.08,0,0,1,.78,1c.06,1.56-2.45,1.51-3.08.55l.54-.46a1.24,1.24,0,0,0,1,.53c.42,0,.76-.14.76-.56,0-.73-1.27-.51-1.76-.95a.84.84,0,0,1-.26-.3"/>
    <path class="cls-1" d="M245.21,120.24a1.34,1.34,0,0,1,1.22-.74,1.2,1.2,0,0,1,1.19.77,1.41,1.41,0,0,1,1.3-.77c1,0,1.43.61,1.43,1.56v2.38h-.76v-2.13c0-.66-.19-1.17-.85-1.17-1.39,0-.87,2-1,3.3H247v-2.28c0-.61-.21-1-.81-1s-1,.58-1,1.26v2h-.76c0-1.28,0-2.61,0-3.84h.72c0,.16,0,.45,0,.63h0"/>
    <path class="cls-1" d="M252.93,122.94a1.09,1.09,0,0,0,1.11-1.33c-.83,0-1.9,0-1.9.73,0,.44.35.59.79.6m-1.56-.58c0-1.24,1.4-1.26,2.67-1.3,0-.65-.35-.95-.95-.95a1.6,1.6,0,0,0-1.09.45l-.4-.49a2.26,2.26,0,0,1,1.57-.58,1.42,1.42,0,0,1,1.6,1.51,23.92,23.92,0,0,0,.06,2.44h-.69a2.56,2.56,0,0,1-.06-.55h0a1.47,1.47,0,0,1-1.29.65C252,123.54,251.36,123.18,251.36,122.36Z"/>
    <polyline class="cls-1" points="256.81 123.44 256.05 123.44 256.05 120.38 256.05 117.32 256.81 117.32 256.81 120.38 256.81 123.44"/>
    <polyline class="cls-1" points="258.92 123.44 258.16 123.44 258.16 120.38 258.16 117.32 258.92 117.32 258.92 120.38 258.92 123.44"/>
    <path class="cls-1" d="M262.24,123.44c0-1.28,0-2.61,0-3.84h.72c0,.16,0,.48,0,.65h0a1.3,1.3,0,0,1,1.47-.72l0,.7a1.1,1.1,0,0,0-1.43,1.19v2h-.76"/>
    <path class="cls-1" d="M266.76,119.5c1.3,0,1.9.87,1.84,2.25h-3a1.2,1.2,0,0,0,1.25,1.17,1.28,1.28,0,0,0,1.12-.58l.53.43a1.92,1.92,0,0,1-1.65.79,2,2,0,0,1,0-4m1.08,1.68a1.07,1.07,0,0,0-1.54-1,1.12,1.12,0,0,0-.75,1Z"/>
    <path class="cls-1" d="M271.48,123.44h-.83l-1.56-3.84h.84c.38,1,.74,2,1.14,3l1.13-3H273"/>
    <path class="cls-1" d="M275.48,119.5c1.3,0,1.9.87,1.84,2.25h-3a1.2,1.2,0,0,0,1.25,1.17,1.28,1.28,0,0,0,1.12-.58l.53.43a1.92,1.92,0,0,1-1.65.79,2,2,0,0,1,0-4m1.08,1.68a1.07,1.07,0,0,0-1.54-1,1.12,1.12,0,0,0-.75,1Z"/>
    <path class="cls-1" d="M278.39,123.44c0-1.28,0-2.61,0-3.84h.72c0,.16,0,.45,0,.63h0a1.34,1.34,0,0,1,1.25-.74c1,0,1.43.61,1.43,1.56v2.38h-.76v-2.13c0-.68-.19-1.17-.87-1.17s-1,.57-1,1.26v2h-.76"/>
    <path class="cls-1" d="M286.5,119.6c0,1.28,0,2.61,0,3.84h-.72c0-.16,0-.49,0-.63a1.41,1.41,0,0,1-1.26.74,1.36,1.36,0,0,1-1.43-1.56V119.6h.76v2.12c0,.68.19,1.18.87,1.18s1-.57,1-1.26v-2h.76"/>
    <path class="cls-1" d="M289.55,119.5c1.3,0,1.9.87,1.84,2.25h-3a1.2,1.2,0,0,0,1.25,1.17,1.28,1.28,0,0,0,1.12-.58l.53.43a1.92,1.92,0,0,1-1.65.79,2,2,0,0,1,0-4m1.08,1.68a1.07,1.07,0,0,0-1.54-1,1.12,1.12,0,0,0-.75,1Z"/>
    <path class="cls-1" d="M243.1,132.51c0-1,0-2,0-2.88l-1.81,2.88h1.83m.76,0h.83v.67h-.83v1.29h-.76v-1.29h-2.64v-.71l2.44-3.73h1v3.77Z"/>
    <polyline class="cls-1" points="248.1 134.47 247.31 134.47 247.31 132.08 247.31 129.69 246.23 130.6 245.77 130.05 247.4 128.73 248.1 128.73 248.1 131.6 248.1 134.47"/>
    <path class="cls-1" d="M251.9,134.73l-.55-.27,3.52-6,.54.27m-3.79,2.09a.76.76,0,1,0-.76-.76A.71.71,0,0,0,251.61,130.83Zm0,.67a1.43,1.43,0,1,1,1.43-1.43A1.35,1.35,0,0,1,251.61,131.5Zm3.52,2.39a.76.76,0,1,0-.76-.76A.71.71,0,0,0,255.13,133.89Zm0,.67a1.43,1.43,0,1,1,1.43-1.43A1.35,1.35,0,0,1,255.13,134.57Z"/>
    <line class="cls-4" x1="184.95" y1="176.23" x2="310.95" y2="171.73"/>
    <polygon class="cls-1" points="184.95 176.68 184.91 176.68 184.95 176.23 184.95 176.68"/>
    <polygon class="cls-1" points="310.95 171.73 311.81 172.13 310.95 172.18 310.95 171.28 311.94 171.23 310.95 171.73"/>
    <rect class="cls-5" x="239.08" y="162.28" width="51.3" height="22.14"/>
    <polyline class="cls-1" points="240.52 170.38 239.76 170.38 239.76 167.32 239.76 164.25 240.52 164.25 240.52 167.32 240.52 170.38"/>
    <path class="cls-1" d="M243.13,169.88a1.09,1.09,0,0,0,1.11-1.33c-.83,0-1.9,0-1.9.73,0,.44.35.59.79.6m-1.56-.58c0-1.24,1.4-1.26,2.67-1.3,0-.65-.35-.95-.95-.95a1.6,1.6,0,0,0-1.09.45l-.4-.49a2.26,2.26,0,0,1,1.57-.58,1.42,1.42,0,0,1,1.6,1.51,23.92,23.92,0,0,0,.06,2.44h-.69a2.56,2.56,0,0,1-.06-.55h0a1.47,1.47,0,0,1-1.29.65C242.16,170.48,241.56,170.11,241.56,169.29Z"/>
    <path class="cls-1" d="M246.24,170.38c0-1.28,0-2.61,0-3.84h.72c0,.16,0,.48,0,.65h0a1.3,1.3,0,0,1,1.47-.72l0,.7a1.1,1.1,0,0,0-1.43,1.19v2h-.76"/>
    <path class="cls-1" d="M250.83,167.07a1.36,1.36,0,0,0,0,2.71,1.35,1.35,0,0,0,0-2.71m2,3.12a1.92,1.92,0,0,1-2.12,2.14,2.81,2.81,0,0,1-1.88-.7l.49-.59a2,2,0,0,0,1.4.62c1.1,0,1.47-.77,1.34-1.91a1.56,1.56,0,0,1-1.35.66,2,2,0,0,1,0-4,1.63,1.63,0,0,1,1.4.72v-.62h.74v3.64Z"/>
    <path class="cls-1" d="M255.88,166.43c1.3,0,1.9.87,1.84,2.25h-3a1.2,1.2,0,0,0,1.25,1.17,1.28,1.28,0,0,0,1.12-.58l.53.43a1.92,1.92,0,0,1-1.65.79,2,2,0,0,1,0-4m1.08,1.68a1.07,1.07,0,0,0-1.54-1,1.12,1.12,0,0,0-.75,1Z"/>
    <path class="cls-1" d="M260.8,170.38c0-1.28,0-2.61,0-3.84h.72c0,.16,0,.48,0,.65h0a1.3,1.3,0,0,1,1.47-.72l0,.7a1.1,1.1,0,0,0-1.43,1.19v2h-.76"/>
    <path class="cls-1" d="M265.32,166.43c1.3,0,1.9.87,1.84,2.25h-3a1.2,1.2,0,0,0,1.25,1.17,1.28,1.28,0,0,0,1.12-.58l.53.43a1.92,1.92,0,0,1-1.65.79,2,2,0,0,1,0-4m1.08,1.68a1.07,1.07,0,0,0-1.54-1,1.12,1.12,0,0,0-.75,1Z"/>
    <path class="cls-1" d="M270,170.38h-.83l-1.56-3.84h.84c.38,1,.74,2,1.14,3l1.13-3h.81"/>
    <path class="cls-1" d="M274,166.43c1.3,0,1.9.87,1.84,2.25h-3a1.2,1.2,0,0,0,1.25,1.17,1.28,1.28,0,0,0,1.12-.58l.53.43a1.92,1.92,0,0,1-1.65.79,2,2,0,0,1,0-4m1.08,1.68a1.07,1.07,0,0,0-1.54-1,1.12,1.12,0,0,0-.75,1Z"/>
    <path class="cls-1" d="M277,170.38c0-1.28,0-2.61,0-3.84h.72c0,.16,0,.45,0,.63h0a1.34,1.34,0,0,1,1.25-.74c1,0,1.43.61,1.43,1.56v2.38h-.76v-2.13c0-.68-.19-1.17-.87-1.17s-1,.57-1,1.26v2H277"/>
    <path class="cls-1" d="M285.06,166.54c0,1.28,0,2.61,0,3.84h-.72c0-.16,0-.49,0-.63a1.41,1.41,0,0,1-1.26.74,1.36,1.36,0,0,1-1.43-1.56v-2.38h.76v2.12c0,.68.19,1.18.87,1.18s1-.57,1-1.26v-2h.76"/>
    <path class="cls-1" d="M288.11,166.43c1.3,0,1.9.87,1.84,2.25h-3a1.2,1.2,0,0,0,1.25,1.17,1.28,1.28,0,0,0,1.12-.58l.53.43a1.92,1.92,0,0,1-1.65.79,2,2,0,0,1,0-4m1.08,1.68a1.07,1.07,0,0,0-1.54-1,1.12,1.12,0,0,0-.75,1Z"/>
    <path class="cls-1" d="M241.15,178.4a2.89,2.89,0,0,0-1.27.32l.08-3h3.09v.7h-2.37l0,1.51c1.4-.36,2.69.3,2.66,1.7a2,2,0,0,1-3.83.83l.71-.28a1.18,1.18,0,0,0,1.12.77,1.13,1.13,0,0,0,1.2-1.23c0-.83-.53-1.24-1.34-1.26"/>
    <path class="cls-1" d="M246,178.4a2.89,2.89,0,0,0-1.27.32l.08-3h3.09v.7h-2.37l0,1.51c1.4-.36,2.69.3,2.66,1.7a2,2,0,0,1-3.83.83l.71-.28a1.18,1.18,0,0,0,1.12.77,1.13,1.13,0,0,0,1.2-1.23c0-.83-.53-1.24-1.34-1.26"/>
    <path class="cls-1" d="M250.77,181.66l-.55-.27,3.52-6,.54.27m-3.79,2.09a.76.76,0,1,0-.76-.76A.71.71,0,0,0,250.49,177.77Zm0,.67a1.43,1.43,0,1,1,1.43-1.43A1.35,1.35,0,0,1,250.49,178.44Zm3.52,2.39a.76.76,0,1,0-.76-.76A.71.71,0,0,0,254,180.83Zm0,.67a1.43,1.43,0,1,1,1.43-1.43A1.35,1.35,0,0,1,254,181.5Z"/>
    <line class="cls-4" x1="184.95" y1="176.23" x2="310.95" y2="212.23"/>
    <polygon class="cls-1" points="185.09 175.78 184.95 176.23 184.95 175.73 185.09 175.78"/>
    <polygon class="cls-1" points="311.54 211.91 310.95 212.23 312.17 212.86 312.12 213.04 310.81 212.68 311.08 211.78 311.54 211.91"/>
    <rect class="cls-5" x="238.95" y="187.97" width="51.62" height="22.1"/>
    <path class="cls-1" d="M239.47,193.76c-.5-1.26.95-2,2.14-1.47a1.3,1.3,0,0,1,.6.47l-.53.45a1,1,0,0,0-.89-.48c-.38,0-.71.12-.71.5,0,.59.92.51,1.39.73a1.08,1.08,0,0,1,.78,1c.06,1.56-2.45,1.51-3.08.55l.54-.46a1.24,1.24,0,0,0,1,.53c.42,0,.76-.14.76-.56,0-.73-1.27-.51-1.76-.95a.84.84,0,0,1-.26-.3"/>
    <path class="cls-1" d="M243.95,192.87a1.34,1.34,0,0,1,1.22-.74,1.2,1.2,0,0,1,1.19.77,1.41,1.41,0,0,1,1.3-.77c1,0,1.43.61,1.43,1.56v2.38h-.76v-2.13c0-.66-.19-1.17-.85-1.17-1.39,0-.87,2-1,3.3h-.76v-2.28c0-.61-.21-1-.81-1s-1,.58-1,1.26v2h-.76c0-1.28,0-2.61,0-3.84h.72c0,.16,0,.45,0,.63h0"/>
    <path class="cls-1" d="M251.67,195.57a1.09,1.09,0,0,0,1.11-1.33c-.83,0-1.9,0-1.9.73,0,.44.35.59.79.6M250.1,195c0-1.24,1.4-1.26,2.67-1.3,0-.65-.35-.95-.95-.95a1.6,1.6,0,0,0-1.09.45l-.4-.49a2.26,2.26,0,0,1,1.57-.58,1.42,1.42,0,0,1,1.6,1.51,23.92,23.92,0,0,0,.06,2.44h-.69a2.56,2.56,0,0,1-.06-.55h0a1.47,1.47,0,0,1-1.29.65C250.7,196.17,250.1,195.81,250.1,195Z"/>
    <polyline class="cls-1" points="255.56 196.07 254.79 196.07 254.79 193.01 254.79 189.95 255.56 189.95 255.56 193.01 255.56 196.07"/>
    <polyline class="cls-1" points="257.66 196.07 256.9 196.07 256.9 193.01 256.9 189.95 257.66 189.95 257.66 193.01 257.66 196.07"/>
    <path class="cls-1" d="M261,196.07c0-1.28,0-2.61,0-3.84h.72c0,.16,0,.48,0,.65h0a1.3,1.3,0,0,1,1.47-.72l0,.7a1.1,1.1,0,0,0-1.43,1.19v2H261"/>
    <path class="cls-1" d="M265.5,192.13c1.3,0,1.9.87,1.84,2.25h-3a1.2,1.2,0,0,0,1.25,1.17,1.28,1.28,0,0,0,1.12-.58l.53.43a1.92,1.92,0,0,1-1.65.79,2,2,0,0,1,0-4m1.08,1.68a1.07,1.07,0,0,0-1.54-1,1.12,1.12,0,0,0-.75,1Z"/>
    <path class="cls-1" d="M270.22,196.07h-.83l-1.56-3.84h.84c.38,1,.74,2,1.14,3l1.13-3h.81"/>
    <path class="cls-1" d="M274.22,192.13c1.3,0,1.9.87,1.84,2.25h-3a1.2,1.2,0,0,0,1.25,1.17,1.28,1.28,0,0,0,1.12-.58l.53.43a1.92,1.92,0,0,1-1.65.79,2,2,0,0,1,0-4m1.08,1.68a1.07,1.07,0,0,0-1.54-1,1.12,1.12,0,0,0-.75,1Z"/>
    <path class="cls-1" d="M277.13,196.07c0-1.28,0-2.61,0-3.84h.72c0,.16,0,.45,0,.63h0a1.34,1.34,0,0,1,1.25-.74c1,0,1.43.61,1.43,1.56v2.38h-.76v-2.13c0-.68-.19-1.17-.87-1.17s-1,.57-1,1.26v2h-.76"/>
    <path class="cls-1" d="M285.24,192.23c0,1.28,0,2.61,0,3.84h-.72c0-.16,0-.49,0-.63a1.41,1.41,0,0,1-1.26.74,1.36,1.36,0,0,1-1.43-1.56v-2.38h.76v2.12c0,.68.19,1.18.87,1.18s1-.57,1-1.26v-2h.76"/>
    <path class="cls-1" d="M288.29,192.13c1.3,0,1.9.87,1.84,2.25h-3a1.2,1.2,0,0,0,1.25,1.17,1.28,1.28,0,0,0,1.12-.58l.53.43a1.92,1.92,0,0,1-1.65.79,2,2,0,0,1,0-4m1.08,1.68a1.07,1.07,0,0,0-1.54-1,1.12,1.12,0,0,0-.75,1Z"/>
    <path class="cls-1" d="M241.84,205.14c0-1,0-2,0-2.88L240,205.14h1.83m.76,0h.83v.67h-.83v1.29h-.76v-1.29H239.2v-.71l2.44-3.73h1v3.77Z"/>
    <path class="cls-1" d="M245.83,204.09a2.89,2.89,0,0,0-1.27.32l.08-3h3.09v.7h-2.37l0,1.51c1.4-.36,2.69.3,2.66,1.7a2,2,0,0,1-3.83.83l.71-.28a1.18,1.18,0,0,0,1.12.77,1.13,1.13,0,0,0,1.2-1.23c0-.83-.53-1.24-1.34-1.26"/>
    <path class="cls-1" d="M250.64,207.36l-.55-.27,3.52-6,.54.27m-3.79,2.09a.76.76,0,1,0-.76-.76A.71.71,0,0,0,250.35,203.46Zm0,.67a1.43,1.43,0,1,1,1.43-1.43A1.35,1.35,0,0,1,250.35,204.13Zm3.52,2.39a.76.76,0,1,0-.76-.76A.71.71,0,0,0,253.87,206.52Zm0,.67a1.43,1.43,0,1,1,1.43-1.43A1.35,1.35,0,0,1,253.87,207.2Z"/>
    <polygon class="cls-6" points="328.95 221.23 328.95 203.23 310.95 212.23 328.95 221.23"/>
    <polygon class="cls-3" points="328.95 221.23 328.95 203.23 310.95 212.23 328.95 221.23"/>
    <polygon class="cls-6" points="328.95 180.73 328.95 162.73 310.95 171.73 328.95 180.73"/>
    <polygon class="cls-3" points="328.95 180.73 328.95 162.73 310.95 171.73 328.95 180.73"/>
    <polygon class="cls-6" points="328.95 140.23 328.95 122.23 310.95 131.23 328.95 140.23"/>
    <polygon class="cls-3" points="328.95 140.23 328.95 122.23 310.95 131.23 328.95 140.23"/>
    <polygon class="cls-6" points="328.95 99.73 328.95 81.73 310.95 90.73 328.95 99.73"/>
    <polygon class="cls-3" points="328.95 99.73 328.95 81.73 310.95 90.73 328.95 99.73"/>
    <polygon class="cls-6" points="328.95 59.23 328.95 41.23 310.95 50.23 328.95 59.23"/>
    <polygon class="cls-3" points="328.95 59.23 328.95 41.23 310.95 50.23 328.95 59.23"/>
    <polygon class="cls-6" points="328.95 18.73 328.95 0.73 310.95 9.73 328.95 18.73"/>
    <polygon class="cls-3" points="328.95 18.73 328.95 0.73 310.95 9.73 328.95 18.73"/>
    <path class="cls-1" d="M337.84,7.1A.87.87,0,0,0,337,8c0,.58.4.76.86.92V7.1m.41,4.63a.9.9,0,0,0,.91-1c0-.58-.45-.8-.91-1v1.94Zm1.68-1a1.57,1.57,0,0,1-1.68,1.63V13h-.41v-.58a2.5,2.5,0,0,1-1.81-.8l.59-.5a1.62,1.62,0,0,0,1.22.66V9.68c-.83-.25-1.63-.58-1.63-1.64s.69-1.47,1.63-1.57V5.9h.41v.56a2.36,2.36,0,0,1,1.6.62l-.55.51a1.4,1.4,0,0,0-1-.49V9C339.09,9.32,339.94,9.65,339.94,10.75Z"/>
    <path class="cls-1" d="M342.91,6.41a1.63,1.63,0,0,1,1.74,2.14,2.64,2.64,0,0,1-.85,1.22l-1.86,1.81h2.81v.7H341v-.75l2.28-2.27a1.75,1.75,0,0,0,.63-1.22.94.94,0,0,0-1-1,1.08,1.08,0,0,0-1.08,1l-.77-.13a1.76,1.76,0,0,1,1.85-1.52"/>
    <path class="cls-1" d="M348.32,7.3a.85.85,0,0,0-1.15,0c-.68.71-.72,2.57-.36,3.66a1,1,0,0,0,.94.81c1.21,0,1.21-1.83,1.1-3.13a2.3,2.3,0,0,0-.53-1.34m-2.41,3.3c-.32-1.88,0-4.2,1.85-4.2,1.53,0,2,1.43,2,3a3.17,3.17,0,0,1-1.08,2.78,1.79,1.79,0,0,1-1.76,0A2.3,2.3,0,0,1,345.91,10.61Z"/>
    <path class="cls-1" d="M353.14,7.3a.85.85,0,0,0-1.15,0c-.68.71-.72,2.57-.36,3.66a1,1,0,0,0,.94.81c1.21,0,1.21-1.83,1.1-3.13a2.3,2.3,0,0,0-.53-1.34m-2.41,3.3c-.32-1.88,0-4.2,1.85-4.2,1.53,0,2,1.43,2,3a3.17,3.17,0,0,1-1.08,2.78,1.79,1.79,0,0,1-1.76,0A2.3,2.3,0,0,1,350.73,10.61Z"/>
    <polyline class="cls-1" points="356.41 10.12 356.44 10.12 358.05 8.45 359.07 8.45 357.27 10.2 359.22 12.29 358.17 12.29 356.44 10.3 356.41 10.3 356.41 11.3 356.41 12.29 355.65 12.29 355.65 9.23 355.65 6.17 356.41 6.17 356.41 8.15 356.41 10.12"/>
    <path class="cls-1" d="M337.84,209.6a.87.87,0,0,0-.86.89c0,.58.4.76.86.92V209.6m.41,4.63a.9.9,0,0,0,.91-1c0-.58-.45-.8-.91-1v1.94Zm1.68-1a1.57,1.57,0,0,1-1.68,1.63v.58h-.41v-.58a2.5,2.5,0,0,1-1.81-.8l.59-.5a1.62,1.62,0,0,0,1.22.66v-2.06c-.83-.25-1.63-.58-1.63-1.64s.69-1.47,1.63-1.57v-.57h.41V209a2.36,2.36,0,0,1,1.6.62l-.55.51a1.4,1.4,0,0,0-1-.49v1.93C339.09,211.82,339.94,212.15,339.94,213.25Z"/>
    <path class="cls-1" d="M342.93,211.85a1.11,1.11,0,0,0-1.2,1.21,1.19,1.19,0,1,0,2.37,0,1.09,1.09,0,0,0-1.17-1.2m0,3.09a1.8,1.8,0,0,1-2-1.89,2.73,2.73,0,0,1,.56-1.63l1.5-2.37h.93l-1.54,2.31v0a1.45,1.45,0,0,1,.71-.15,1.7,1.7,0,0,1,1.79,1.8A1.8,1.8,0,0,1,342.93,214.94Z"/>
    <path class="cls-1" d="M348.32,209.8a.85.85,0,0,0-1.15,0c-.68.71-.72,2.57-.36,3.66a1,1,0,0,0,.94.81c1.21,0,1.21-1.83,1.1-3.13a2.3,2.3,0,0,0-.53-1.34m-2.41,3.3c-.32-1.88,0-4.2,1.85-4.2,1.53,0,2,1.43,2,3a3.17,3.17,0,0,1-1.08,2.78,1.79,1.79,0,0,1-1.76,0A2.3,2.3,0,0,1,345.91,213.11Z"/>
    <polyline class="cls-1" points="351.59 212.62 351.62 212.62 353.23 210.95 354.25 210.95 352.45 212.69 354.4 214.79 353.35 214.79 351.62 212.8 351.59 212.8 351.59 213.8 351.59 214.79 350.83 214.79 350.83 211.73 350.83 208.67 351.59 208.67 351.59 210.65 351.59 212.62"/>
    <path class="cls-1" d="M337.84,169.1a.87.87,0,0,0-.86.89c0,.58.4.76.86.92V169.1m.41,4.63a.9.9,0,0,0,.91-1c0-.58-.45-.8-.91-1v1.94Zm1.68-1a1.57,1.57,0,0,1-1.68,1.63V175h-.41v-.58a2.5,2.5,0,0,1-1.81-.8l.59-.5a1.62,1.62,0,0,0,1.22.66v-2.06c-.83-.25-1.63-.58-1.63-1.64s.69-1.47,1.63-1.57v-.57h.41v.56a2.36,2.36,0,0,1,1.6.62l-.55.51a1.4,1.4,0,0,0-1-.49V171C339.09,171.32,339.94,171.65,339.94,172.75Z"/>
    <polyline class="cls-1" points="343.59 174.29 342.8 174.29 342.8 171.9 342.8 169.51 341.72 170.42 341.26 169.88 342.88 168.56 343.59 168.56 343.59 171.43 343.59 174.29"/>
    <path class="cls-1" d="M347.73,168.41a1.63,1.63,0,0,1,1.74,2.14,2.64,2.64,0,0,1-.85,1.22l-1.86,1.81h2.81v.7h-3.74v-.75l2.28-2.27a1.75,1.75,0,0,0,.63-1.22.94.94,0,0,0-1-1,1.08,1.08,0,0,0-1.08,1l-.77-.13a1.76,1.76,0,0,1,1.85-1.52"/>
    <path class="cls-1" d="M353.14,169.3a.85.85,0,0,0-1.15,0c-.68.71-.72,2.57-.36,3.66a1,1,0,0,0,.94.81c1.21,0,1.21-1.83,1.1-3.13a2.3,2.3,0,0,0-.53-1.34m-2.41,3.3c-.32-1.88,0-4.2,1.85-4.2,1.53,0,2,1.43,2,3a3.17,3.17,0,0,1-1.08,2.78,1.79,1.79,0,0,1-1.76,0A2.3,2.3,0,0,1,350.73,172.61Z"/>
    <polyline class="cls-1" points="356.41 172.12 356.44 172.12 358.05 170.45 359.07 170.45 357.27 172.19 359.22 174.29 358.17 174.29 356.44 172.3 356.41 172.3 356.41 173.3 356.41 174.29 355.65 174.29 355.65 171.23 355.65 168.17 356.41 168.17 356.41 170.15 356.41 172.12"/>
    <path class="cls-1" d="M337.84,128.6a.87.87,0,0,0-.86.89c0,.58.4.76.86.92V128.6m.41,4.63a.9.9,0,0,0,.91-1c0-.58-.45-.8-.91-1v1.94Zm1.68-1a1.57,1.57,0,0,1-1.68,1.63v.58h-.41v-.58a2.5,2.5,0,0,1-1.81-.8l.59-.5a1.62,1.62,0,0,0,1.22.66v-2.06c-.83-.25-1.63-.58-1.63-1.64s.69-1.47,1.63-1.57v-.57h.41V128a2.36,2.36,0,0,1,1.6.62l-.55.51a1.4,1.4,0,0,0-1-.49v1.93C339.09,130.82,339.94,131.15,339.94,132.25Z"/>
    <path class="cls-1" d="M342.93,131.1a1.09,1.09,0,1,0,1.12,1.09,1,1,0,0,0-1.12-1.09m0-2.54a.94.94,0,1,0,0,1.87.94.94,0,1,0,0-1.87Zm1.72.9a1.36,1.36,0,0,1-.88,1.31,1.43,1.43,0,0,1,1.09,1.46c0,1.13-.79,1.71-1.92,1.71s-1.93-.58-1.93-1.71a1.44,1.44,0,0,1,1.09-1.46h0a1.29,1.29,0,0,1-.88-1.28,1.73,1.73,0,0,1,3.44,0Z"/>
    <path class="cls-1" d="M348.32,128.8a.85.85,0,0,0-1.15,0c-.68.71-.72,2.57-.36,3.66a1,1,0,0,0,.94.81c1.21,0,1.21-1.83,1.1-3.13a2.3,2.3,0,0,0-.53-1.34m-2.41,3.3c-.32-1.88,0-4.2,1.85-4.2,1.53,0,2,1.43,2,3a3.17,3.17,0,0,1-1.08,2.78,1.79,1.79,0,0,1-1.76,0A2.3,2.3,0,0,1,345.91,132.11Z"/>
    <polyline class="cls-1" points="351.59 131.62 351.62 131.62 353.23 129.95 354.25 129.95 352.45 131.69 354.4 133.79 353.35 133.79 351.62 131.8 351.59 131.8 351.59 132.8 351.59 133.79 350.83 133.79 350.83 130.73 350.83 127.67 351.59 127.67 351.59 129.65 351.59 131.62"/>
    <path class="cls-1" d="M337.84,88.1A.87.87,0,0,0,337,89c0,.58.4.76.86.92V88.1m.41,4.63a.9.9,0,0,0,.91-1c0-.58-.45-.8-.91-1v1.94Zm1.68-1a1.57,1.57,0,0,1-1.68,1.63V94h-.41v-.58a2.5,2.5,0,0,1-1.81-.8l.59-.5a1.62,1.62,0,0,0,1.22.66V90.68c-.83-.25-1.63-.58-1.63-1.64s.69-1.47,1.63-1.57V86.9h.41v.56a2.36,2.36,0,0,1,1.6.62l-.55.51a1.4,1.4,0,0,0-1-.49V90C339.09,90.32,339.94,90.65,339.94,91.75Z"/>
    <polyline class="cls-1" points="343.59 93.29 342.8 93.29 342.8 90.9 342.8 88.51 341.72 89.42 341.26 88.88 342.88 87.56 343.59 87.56 343.59 90.43 343.59 93.29"/>
    <path class="cls-1" d="M347.4,90.29a2.89,2.89,0,0,0-1.27.32l.08-3h3.09v.7h-2.37l0,1.51c1.4-.36,2.69.3,2.66,1.7a2,2,0,0,1-3.83.83l.71-.28a1.18,1.18,0,0,0,1.12.77,1.13,1.13,0,0,0,1.2-1.23c0-.83-.53-1.24-1.34-1.26"/>
    <path class="cls-1" d="M353.14,88.3a.85.85,0,0,0-1.15,0c-.68.71-.72,2.57-.36,3.66a1,1,0,0,0,.94.81c1.21,0,1.21-1.83,1.1-3.13a2.3,2.3,0,0,0-.53-1.34m-2.41,3.3c-.32-1.88,0-4.2,1.85-4.2,1.53,0,2,1.43,2,3a3.17,3.17,0,0,1-1.08,2.78,1.79,1.79,0,0,1-1.76,0A2.3,2.3,0,0,1,350.73,91.61Z"/>
    <polyline class="cls-1" points="356.41 91.12 356.44 91.12 358.05 89.45 359.07 89.45 357.27 91.19 359.22 93.29 358.17 93.29 356.44 91.3 356.41 91.3 356.41 92.3 356.41 93.29 355.65 93.29 355.65 90.23 355.65 87.17 356.41 87.17 356.41 89.15 356.41 91.12"/>
    <path class="cls-1" d="M337.84,47.6a.87.87,0,0,0-.86.89c0,.58.4.76.86.92V47.6m.41,4.63a.9.9,0,0,0,.91-1c0-.58-.45-.8-.91-1v1.94Zm1.68-1a1.57,1.57,0,0,1-1.68,1.63v.58h-.41v-.58a2.5,2.5,0,0,1-1.81-.8l.59-.5a1.62,1.62,0,0,0,1.22.66V50.18c-.83-.25-1.63-.58-1.63-1.64s.69-1.47,1.63-1.57V46.4h.41V47a2.36,2.36,0,0,1,1.6.62l-.55.51a1.4,1.4,0,0,0-1-.49v1.93C339.09,49.82,339.94,50.15,339.94,51.25Z"/>
    <polyline class="cls-1" points="343.59 52.79 342.8 52.79 342.8 50.4 342.8 48.01 341.72 48.92 341.26 48.38 342.88 47.06 343.59 47.06 343.59 49.93 343.59 52.79"/>
    <path class="cls-1" d="M348.32,47.8a.85.85,0,0,0-1.15,0c-.68.71-.72,2.57-.36,3.66a1,1,0,0,0,.94.81c1.21,0,1.21-1.83,1.1-3.13a2.3,2.3,0,0,0-.53-1.34m-2.41,3.3c-.32-1.88,0-4.2,1.85-4.2,1.53,0,2,1.43,2,3a3.17,3.17,0,0,1-1.08,2.78,1.79,1.79,0,0,1-1.76,0A2.3,2.3,0,0,1,345.91,51.11Z"/>
    <path class="cls-1" d="M353.14,47.8a.85.85,0,0,0-1.15,0c-.68.71-.72,2.57-.36,3.66a1,1,0,0,0,.94.81c1.21,0,1.21-1.83,1.1-3.13a2.3,2.3,0,0,0-.53-1.34m-2.41,3.3c-.32-1.88,0-4.2,1.85-4.2,1.53,0,2,1.43,2,3a3.17,3.17,0,0,1-1.08,2.78,1.79,1.79,0,0,1-1.76,0A2.3,2.3,0,0,1,350.73,51.11Z"/>
    <polyline class="cls-1" points="356.41 50.62 356.44 50.62 358.05 48.95 359.07 48.95 357.27 50.7 359.22 52.79 358.17 52.79 356.44 50.8 356.41 50.8 356.41 51.8 356.41 52.79 355.65 52.79 355.65 49.73 355.65 46.67 356.41 46.67 356.41 48.65 356.41 50.62"/>
  </g>
</svg>
